<svg
    aria-hidden="true"
    fill="currentColor"
    focusable="false"
    height="24"
    role="img"
    style="overflow: visible;"
    viewBox="0 0 24 24"
    width="24"
    xmlns="http://www.w3.org/2000/svg"
>
    <path d="M20,21.333l-16,0c-0.733,0 -1.333,-0.6 -1.333,-1.333l-0,-16c-0,-0.733 0.6,-1.333 1.333,-1.333l6.667,-0c0.733,-0 1.333,-0.6 1.333,-1.334c0,-0.733 -0.6,-1.333 -1.333,-1.333l-8,-0c-1.48,-0 -2.667,1.2 -2.667,2.667l0,18.666c0,1.467 1.2,2.667 2.667,2.667l18.666,-0c1.467,-0 2.667,-1.2 2.667,-2.667l0,-8c0,-0.733 -0.6,-1.333 -1.333,-1.333c-0.734,-0 -1.334,0.6 -1.334,1.333l0,6.667c0,0.733 -0.6,1.333 -1.333,1.333Zm-5.333,-20c-0,0.734 0.6,1.334 1.333,1.334l3.453,-0l-12.173,12.173c-0.52,0.52 -0.52,1.36 -0,1.88c0.52,0.52 1.36,0.52 1.88,-0l12.173,-12.173l0,3.453c0,0.733 0.6,1.333 1.334,1.333c0.733,0 1.333,-0.6 1.333,-1.333l-0,-6.667c-0,-0.733 -0.6,-1.333 -1.333,-1.333l-6.667,-0c-0.733,-0 -1.333,0.6 -1.333,1.333Z"/>
</svg>
