<?xml version="1.0" encoding="UTF-8" standalone="no"?>
<!DOCTYPE svg PUBLIC "-//W3C//DTD SVG 1.1//EN" "http://www.w3.org/Graphics/SVG/1.1/DTD/svg11.dtd">
<svg width="100%" height="100%" viewBox="0 0 89 24" version="1.1" xmlns="http://www.w3.org/2000/svg" xmlns:xlink="http://www.w3.org/1999/xlink" xml:space="preserve" xmlns:serif="http://www.serif.com/" style="fill-rule:evenodd;clip-rule:evenodd;stroke-linejoin:round;stroke-miterlimit:2;">
    <path d="M44.08,6.247l-4.026,6.794l-2.042,-6.744c-0.066,-0.219 -0.269,-0.37 -0.498,-0.369l-3.639,-0c-0.212,-0 -0.387,0.175 -0.387,0.387c0,0.044 0.008,0.088 0.023,0.13l3.66,11.359l-3.31,5.354c-0.04,0.062 -0.061,0.134 -0.061,0.208c0,0.212 0.175,0.387 0.388,0.387l3.917,0c0.227,0.001 0.439,-0.118 0.556,-0.313l10.224,-16.914c0.038,-0.062 0.058,-0.133 0.058,-0.205c0,-0.212 -0.174,-0.387 -0.387,-0.387l-3.917,0c-0.229,-0.003 -0.442,0.117 -0.559,0.313Zm-12.258,-0.324l0.001,-0l-3.34,-0c-0.256,-0.003 -0.478,0.185 -0.517,0.439l-0.108,0.693c-0,-0 -2.593,-2.832 -7.181,-0.919c-2.633,1.096 -3.896,3.36 -4.433,5.017c0,0 -1.708,5.039 2.153,7.813c-0,0 3.578,2.667 7.608,-0.165l-0.069,0.442c-0.004,0.025 -0.006,0.05 -0.006,0.075c-0,0.264 0.217,0.481 0.481,0.481l3.338,0c0.257,0.004 0.479,-0.185 0.518,-0.438l2.031,-12.882c0.004,-0.024 0.006,-0.049 0.006,-0.074c-0,-0.264 -0.218,-0.482 -0.482,-0.482Zm-22.726,7.474c3.72,-0.003 6.916,-2.743 7.487,-6.42c0.585,-3.725 -2.326,-6.977 -6.45,-6.977l-6.647,0c-0.257,-0.003 -0.479,0.185 -0.518,0.439l-2.962,18.804c-0.004,0.024 -0.006,0.049 -0.006,0.074c-0,0.264 0.217,0.482 0.481,0.482l3.518,0c0.256,0.003 0.477,-0.185 0.516,-0.438l0.871,-5.524c0.039,-0.254 0.26,-0.443 0.517,-0.44l3.193,0Zm17.817,-0.355c-0.269,1.847 -1.88,3.226 -3.747,3.207c-0.355,0.004 -0.709,-0.048 -1.048,-0.154c-1.44,-0.462 -2.261,-1.846 -2.025,-3.346c0.269,-1.853 1.888,-3.234 3.761,-3.208c0.355,-0.004 0.709,0.049 1.048,0.154c1.435,0.461 2.251,1.845 2.015,3.347l-0.004,-0Zm-14.873,-6.234c-0.218,1.377 -1.282,2.392 -3.319,2.392l-2.606,-0l0.79,-5.01l2.558,-0c2.108,0.004 2.793,1.247 2.577,2.622l-0,-0.004Z" style="fill:#003087;fill-rule:nonzero;"/>
    <path d="M79.906,5.928l-3.336,0c-0.256,-0.003 -0.478,0.186 -0.516,0.439l-0.11,0.693c0,-0 -2.592,-2.831 -7.18,-0.919c-2.632,1.096 -3.896,3.36 -4.434,5.018c0,-0 -1.707,5.038 2.153,7.812c-0,0 3.579,2.667 7.609,-0.165l-0.069,0.442c-0.035,0.212 0.077,0.423 0.273,0.512c0.063,0.03 0.132,0.045 0.202,0.045l3.338,0c0.257,0.004 0.48,-0.185 0.517,-0.439l2.032,-12.881c0.02,-0.14 -0.02,-0.281 -0.111,-0.389c-0.091,-0.108 -0.226,-0.17 -0.368,-0.168Zm-22.726,7.475c3.722,-0.001 6.921,-2.742 7.494,-6.42c0.584,-3.726 -2.326,-6.978 -6.452,-6.978l-6.645,0c-0.256,-0.002 -0.478,0.186 -0.516,0.439l-2.972,18.809c-0.035,0.213 0.078,0.423 0.274,0.513c0.063,0.029 0.132,0.044 0.202,0.045l3.518,-0c0.256,0.002 0.478,-0.186 0.517,-0.44l0.872,-5.524c0.038,-0.254 0.26,-0.442 0.517,-0.439l3.191,-0.005Zm26.482,-12.964l-2.971,18.809c-0.035,0.212 0.078,0.423 0.274,0.512c0.063,0.03 0.132,0.045 0.201,0.045l3.517,0c0.257,0.003 0.479,-0.185 0.517,-0.439l2.972,-18.809c0.022,-0.139 -0.018,-0.282 -0.109,-0.388c-0.092,-0.107 -0.226,-0.169 -0.366,-0.169l-3.518,0c-0.256,-0.003 -0.478,0.186 -0.517,0.439Zm-8.665,12.608c-0.266,1.849 -1.879,3.23 -3.747,3.207c-0.356,0.004 -0.71,-0.048 -1.049,-0.154c-1.441,-0.462 -2.263,-1.846 -2.027,-3.346c0.269,-1.848 1.88,-3.227 3.747,-3.208c0.356,-0.004 0.71,0.048 1.049,0.155c1.45,0.46 2.268,1.845 2.031,3.346l-0.004,0Zm-14.873,-6.234c-0.218,1.377 -1.282,2.392 -3.32,2.392l-2.605,-0l0.791,-5.01l2.558,-0c2.106,0.004 2.792,1.247 2.576,2.622l-0,-0.004Z" style="fill:#0070e0;fill-rule:nonzero;"/>
</svg>
