<?xml version="1.0" encoding="UTF-8" standalone="no"?>
<!DOCTYPE svg PUBLIC "-//W3C//DTD SVG 1.1//EN" "http://www.w3.org/Graphics/SVG/1.1/DTD/svg11.dtd">
<svg width="100%" height="100%" viewBox="0 0 384 309" version="1.1" xmlns="http://www.w3.org/2000/svg" xmlns:xlink="http://www.w3.org/1999/xlink" xml:space="preserve" xmlns:serif="http://www.serif.com/" style="fill-rule:evenodd;clip-rule:evenodd;stroke-linejoin:round;stroke-miterlimit:2;">
    <g>
        <path d="M371.218,270.906l-358.436,-0c-7.06,-0 -12.782,-5.723 -12.782,-12.782l0,-245.34c0,-7.059 5.722,-12.782 12.782,-12.782l358.436,0c7.06,0 12.782,5.723 12.782,12.782l0,245.339c0,7.06 -5.722,12.783 -12.782,12.783Z" style="fill:url(#_Linear1);fill-rule:nonzero;"/>
        <path d="M173.279,93.758c-59.19,0 -107.172,47.983 -107.172,107.173c-0,26.744 9.798,51.199 25.997,69.974l162.349,0c16.2,-18.776 25.998,-43.231 25.998,-69.974c0,-59.19 -47.983,-107.173 -107.172,-107.173Z" style="fill:url(#_Linear2);fill-rule:nonzero;"/>
        <circle cx="192" cy="200.931" r="107.172" style="fill:url(#_Linear3);"/>
        <path d="M192,93.758c-5.168,0 -10.248,0.374 -15.221,1.082c51.979,7.391 91.95,52.069 91.95,106.091c0,54.022 -39.971,98.7 -91.95,106.092c4.973,0.707 10.053,1.081 15.221,1.081c59.189,0 107.172,-47.982 107.172,-107.172c0,-59.189 -47.983,-107.174 -107.172,-107.174Z" style="fill:url(#_Linear4);fill-rule:nonzero;"/>
        <path d="M371.218,0.002l-358.433,-0.002c-7.063,0 -12.785,5.722 -12.785,12.785l-0,61.545l325.409,0c15.533,0 28.125,12.593 28.125,28.126l0,155.668c0,7.06 -5.722,12.782 -12.781,12.782l30.465,-0c7.06,-0 12.782,-5.722 12.782,-12.782l0,-245.34c0,-7.059 -5.722,-12.782 -12.782,-12.782Z" style="fill:url(#_Linear5);fill-rule:nonzero;"/>
        <path d="M371.218,0.002l-358.436,0c-7.06,0 -12.782,5.723 -12.782,12.782l0,42.825l384,0l0,-42.824c0,-7.06 -5.722,-12.783 -12.782,-12.783Z" style="fill:url(#_Linear6);fill-rule:nonzero;"/>
        <circle cx="37.189" cy="27.806" r="18.983" style="fill:url(#_Linear7);"/>
        <circle cx="91.95" cy="27.806" r="18.983" style="fill:url(#_Linear8);"/>
        <circle cx="146.711" cy="27.806" r="18.983" style="fill:url(#_Linear9);"/>
        <path d="M384,55.609l0,-42.825c0,-7.059 -5.723,-12.782 -12.782,-12.782l-30.465,0c7.06,0 12.782,5.723 12.782,12.782l0,42.825l30.465,0Z" style="fill:url(#_Linear10);fill-rule:nonzero;"/>
        <g>
            <path d="M160.835,206.923l-3.995,-0l-0,-6.502c-0,-3.065 -3.622,-4.366 -7.245,-4.366c-3.622,-0 -7.245,1.301 -7.245,4.366l-0,6.502l-7.988,-0l16.441,-32.976c0.278,-0.649 0.464,-1.207 0.464,-1.764c0,-3.344 -4.737,-5.481 -7.245,-5.481c-2.322,-0 -4.644,1.022 -6.038,3.716l-21.457,42.079c-0.557,1.021 -0.743,2.044 -0.743,2.786c-0,3.251 2.136,5.016 4.83,5.016l21.736,0l-0,9.847c-0,2.971 3.623,4.458 7.245,4.458c3.623,-0 7.245,-1.487 7.245,-4.458l-0,-9.847l3.995,0c2.229,0 4.458,-3.344 4.458,-6.688c0,-3.345 -1.485,-6.688 -4.458,-6.688Z" style="fill:url(#_Linear11);fill-rule:nonzero;"/>
            <path d="M192.047,166.702c-12.818,-0 -22.758,5.945 -22.758,21.922l0,24.615c0,15.977 9.939,21.921 22.758,21.921c12.819,0 22.851,-5.944 22.851,-21.921l-0,-24.615c-0.001,-15.977 -10.032,-21.922 -22.851,-21.922Zm8.36,46.537c-0,6.41 -3.158,9.289 -8.361,9.289c-5.201,-0 -8.267,-2.879 -8.267,-9.289l0,-24.615c0,-6.409 3.066,-9.288 8.267,-9.288c5.202,-0 8.361,2.879 8.361,9.288l-0,24.615Z" style="fill:url(#_Linear12);fill-rule:nonzero;"/>
            <path d="M263.758,206.923l-3.995,-0l0,-6.502c0,-3.065 -3.622,-4.366 -7.245,-4.366c-3.622,-0 -7.245,1.301 -7.245,4.366l-0,6.502l-7.988,-0l16.441,-32.976c0.279,-0.649 0.465,-1.207 0.465,-1.764c-0,-3.344 -4.738,-5.481 -7.246,-5.481c-2.322,-0 -4.644,1.022 -6.038,3.716l-21.457,42.079c-0.557,1.021 -0.743,2.044 -0.743,2.786c-0,3.251 2.137,5.016 4.83,5.016l21.736,0l-0,9.847c-0,2.971 3.623,4.458 7.245,4.458c3.623,-0 7.245,-1.487 7.245,-4.458l0,-9.847l3.995,0c2.229,0 4.458,-3.344 4.458,-6.688c0,-3.345 -1.486,-6.688 -4.458,-6.688Z" style="fill:url(#_Linear13);fill-rule:nonzero;"/>
        </g>
    </g>
    <defs>
        <linearGradient id="_Linear1" x1="0" y1="0" x2="1" y2="0" gradientUnits="userSpaceOnUse" gradientTransform="matrix(384,0,0,384,0,135.454)"><stop offset="0" style="stop-color:#f8f6f7;stop-opacity:1"/><stop offset="0.18" style="stop-color:#f8f6f7;stop-opacity:1"/><stop offset="1" style="stop-color:#e7e6f5;stop-opacity:1"/></linearGradient>
        <linearGradient id="_Linear2" x1="0" y1="0" x2="1" y2="0" gradientUnits="userSpaceOnUse" gradientTransform="matrix(233.099,0,0,233.099,-4.51765,182.332)"><stop offset="0" style="stop-color:#f8f6f7;stop-opacity:1"/><stop offset="1" style="stop-color:#d1ceeb;stop-opacity:1"/></linearGradient>
        <linearGradient id="_Linear3" x1="0" y1="0" x2="1" y2="0" gradientUnits="userSpaceOnUse" gradientTransform="matrix(214.344,0,0,214.344,84.8279,200.931)"><stop offset="0" style="stop-color:#fe646f;stop-opacity:1"/><stop offset="0.12" style="stop-color:#fe556d;stop-opacity:1"/><stop offset="0.35" style="stop-color:#fe2e69;stop-opacity:1"/><stop offset="0.57" style="stop-color:#fe0364;stop-opacity:1"/><stop offset="1" style="stop-color:#d2024e;stop-opacity:1"/></linearGradient>
        <linearGradient id="_Linear4" x1="0" y1="0" x2="1" y2="0" gradientUnits="userSpaceOnUse" gradientTransform="matrix(239.478,0,0,239.478,31.6235,200.931)"><stop offset="0" style="stop-color:#fe646f;stop-opacity:1"/><stop offset="0.12" style="stop-color:#fe556d;stop-opacity:1"/><stop offset="0.35" style="stop-color:#fe2e69;stop-opacity:1"/><stop offset="0.57" style="stop-color:#fe0364;stop-opacity:1"/><stop offset="1" style="stop-color:#d2024e;stop-opacity:1"/></linearGradient>
        <linearGradient id="_Linear5" x1="0" y1="0" x2="1" y2="0" gradientUnits="userSpaceOnUse" gradientTransform="matrix(531.945,0,0,531.945,-158.745,135.453)"><stop offset="0" style="stop-color:#f8f6f7;stop-opacity:1"/><stop offset="1" style="stop-color:#d1ceeb;stop-opacity:1"/></linearGradient>
        <linearGradient id="_Linear6" x1="0" y1="0" x2="1" y2="0" gradientUnits="userSpaceOnUse" gradientTransform="matrix(421.657,0,0,421.657,0,27.8061)"><stop offset="0" style="stop-color:#b5adb6;stop-opacity:1"/><stop offset="0.51" style="stop-color:#918291;stop-opacity:1"/><stop offset="1" style="stop-color:#554e56;stop-opacity:1"/></linearGradient>
        <linearGradient id="_Linear7" x1="0" y1="0" x2="1" y2="0" gradientUnits="userSpaceOnUse" gradientTransform="matrix(65.6143,0,0,65.6143,22.5882,27.8061)"><stop offset="0" style="stop-color:#fe646f;stop-opacity:1"/><stop offset="0.12" style="stop-color:#fe556d;stop-opacity:1"/><stop offset="0.35" style="stop-color:#fe2e69;stop-opacity:1"/><stop offset="0.57" style="stop-color:#fe0364;stop-opacity:1"/><stop offset="1" style="stop-color:#d2024e;stop-opacity:1"/></linearGradient>
        <linearGradient id="_Linear8" x1="0" y1="0" x2="1" y2="0" gradientUnits="userSpaceOnUse" gradientTransform="matrix(51.7421,0,0,51.7421,70.4,27.8061)"><stop offset="0" style="stop-color:#fff3be;stop-opacity:1"/><stop offset="0.57" style="stop-color:#ffd15b;stop-opacity:1"/><stop offset="1" style="stop-color:#eca026;stop-opacity:1"/></linearGradient>
        <linearGradient id="_Linear9" x1="0" y1="0" x2="1" y2="0" gradientUnits="userSpaceOnUse" gradientTransform="matrix(63.0912,0,0,63.0912,120.471,27.8061)"><stop offset="0" style="stop-color:#fff3be;stop-opacity:1"/><stop offset="0.57" style="stop-color:#bbec6c;stop-opacity:1"/><stop offset="1" style="stop-color:#81b823;stop-opacity:1"/></linearGradient>
        <linearGradient id="_Linear10" x1="0" y1="0" x2="1" y2="0" gradientUnits="userSpaceOnUse" gradientTransform="matrix(115.963,0,0,115.963,243.2,27.8061)"><stop offset="0" style="stop-color:#b5adb6;stop-opacity:1"/><stop offset="0.51" style="stop-color:#918291;stop-opacity:1"/><stop offset="1" style="stop-color:#554e56;stop-opacity:1"/></linearGradient>
        <linearGradient id="_Linear11" x1="0" y1="0" x2="1" y2="0" gradientUnits="userSpaceOnUse" gradientTransform="matrix(163.199,0,0,163.199,116.047,200.653)"><stop offset="0" style="stop-color:#f8f6f7;stop-opacity:1"/><stop offset="0.18" style="stop-color:#f8f6f7;stop-opacity:1"/><stop offset="1" style="stop-color:#e7e6f5;stop-opacity:1"/></linearGradient>
        <linearGradient id="_Linear12" x1="0" y1="0" x2="1" y2="0" gradientUnits="userSpaceOnUse" gradientTransform="matrix(163.199,0,0,163.199,116.047,200.931)"><stop offset="0" style="stop-color:#f8f6f7;stop-opacity:1"/><stop offset="0.18" style="stop-color:#f8f6f7;stop-opacity:1"/><stop offset="1" style="stop-color:#e7e6f5;stop-opacity:1"/></linearGradient>
        <linearGradient id="_Linear13" x1="0" y1="0" x2="1" y2="0" gradientUnits="userSpaceOnUse" gradientTransform="matrix(163.199,0,0,163.199,116.047,200.653)"><stop offset="0" style="stop-color:#f8f6f7;stop-opacity:1"/><stop offset="0.18" style="stop-color:#f8f6f7;stop-opacity:1"/><stop offset="1" style="stop-color:#e7e6f5;stop-opacity:1"/></linearGradient>
    </defs>
</svg>
