<svg
    aria-hidden="true"
    focusable="false" role="img"
    height="24"
    style="fill-rule:evenodd;clip-rule:evenodd;fill:currentColor;overflow:visible;"
    viewBox="0 0 24 24"
    width="24"
    xmlns:xlink="http://www.w3.org/1999/xlink"
    xmlns="http://www.w3.org/2000/svg"
>
    <path d="M12.008,5.843c-3.407,-0 -6.155,2.747 -6.155,6.154c0,3.407 2.748,6.155 6.155,6.155c3.407,-0 6.155,-2.748 6.155,-6.155c-0,-3.407 -2.748,-6.154 -6.155,-6.154Zm0,10.156c-2.201,-0 -4.001,-1.795 -4.001,-4.002c-0,-2.207 1.794,-4.001 4.001,-4.001c2.207,-0 4.001,1.794 4.001,4.001c0,2.207 -1.799,4.002 -4.001,4.002Zm7.842,-10.408c0,0.798 -0.643,1.435 -1.435,1.435c-0.799,0 -1.436,-0.642 -1.436,-1.435c-0,-0.793 0.643,-1.436 1.436,-1.436c0.792,0 1.435,0.643 1.435,1.436Zm4.076,1.457c-0.091,-1.923 -0.53,-3.627 -1.939,-5.03c-1.403,-1.403 -3.106,-1.843 -5.029,-1.939c-1.982,-0.113 -7.923,-0.113 -9.905,-0c-1.917,0.091 -3.621,0.53 -5.03,1.934c-1.408,1.403 -1.842,3.106 -1.939,5.029c-0.112,1.982 -0.112,7.923 0,9.905c0.091,1.923 0.531,3.626 1.939,5.03c1.409,1.403 3.107,1.842 5.03,1.939c1.982,0.112 7.923,0.112 9.905,-0c1.923,-0.091 3.626,-0.531 5.029,-1.939c1.404,-1.404 1.843,-3.107 1.939,-5.03c0.113,-1.982 0.113,-7.917 0,-9.899Zm-2.56,12.025c-0.418,1.05 -1.227,1.859 -2.282,2.282c-1.58,0.627 -5.33,0.482 -7.076,0.482c-1.746,0 -5.501,0.14 -7.076,-0.482c-1.05,-0.418 -1.859,-1.226 -2.282,-2.282c-0.627,-1.58 -0.482,-5.329 -0.482,-7.076c0,-1.746 -0.139,-5.501 0.482,-7.076c0.418,-1.05 1.227,-1.858 2.282,-2.282c1.58,-0.626 5.33,-0.482 7.076,-0.482c1.746,0 5.501,-0.139 7.076,0.482c1.05,0.418 1.859,1.227 2.282,2.282c0.627,1.58 0.482,5.33 0.482,7.076c0,1.747 0.145,5.501 -0.482,7.076Z"></path>
</svg>
