<svg
    aria-hidden="true"
    fill="currentColor"
    focusable="false"
    height="24"
    role="img"
    version="1.1"
    viewBox="0 0 24 24"
    width="24"
    xml:space="preserve" style="fill-rule:evenodd;clip-rule:evenodd;stroke-linejoin:round;stroke-miterlimit:2;"
    xmlns="http://www.w3.org/2000/svg"
>
    <path d="M10.8,15l-7.11,-0.9c-0.5,-0.06 -0.825,-0.33 -0.975,-0.81c-0.15,-0.48 -0.045,-0.89 0.315,-1.23l12.27,-11.76c0.1,-0.1 0.22,-0.175 0.36,-0.225c0.14,-0.05 0.33,-0.075 0.57,-0.075c0.4,0 0.705,0.17 0.915,0.51c0.21,0.34 0.215,0.69 0.015,1.05l-3.96,7.44l7.11,0.9c0.5,0.06 0.825,0.33 0.975,0.81c0.15,0.48 0.045,0.89 -0.315,1.23l-12.27,11.76c-0.1,0.1 -0.22,0.175 -0.36,0.225c-0.14,0.05 -0.33,0.075 -0.57,0.075c-0.4,-0 -0.705,-0.17 -0.915,-0.51c-0.21,-0.34 -0.215,-0.69 -0.015,-1.05l3.96,-7.44Z"/>
</svg>
