<svg
    aria-hidden="true"
    focusable="false" role="img"
    height="24"
    style="fill-rule:evenodd;clip-rule:evenodd;fill:currentColor;overflow:visible;"
    viewBox="0 0 24 24"
    width="24"
    xmlns:xlink="http://www.w3.org/1999/xlink"
    xmlns="http://www.w3.org/2000/svg"
>
    <path d="M5.373,24l-4.977,0l0,-16.023l4.977,-0l0,16.023Zm-2.491,-18.209c-1.591,0 -2.882,-1.318 -2.882,-2.909c-0,-1.581 1.301,-2.882 2.882,-2.882c1.581,-0 2.882,1.301 2.882,2.882c0,1.591 -1.291,2.909 -2.882,2.909Zm21.118,18.209l-4.971,0l-0,-7.8c-0,-1.859 -0.038,-4.243 -2.588,-4.243c-2.587,0 -2.984,2.02 -2.984,4.109l0,7.934l-4.971,0l-0,-16.023l4.773,-0l-0,2.185l0.07,0c0.664,-1.258 2.287,-2.587 4.708,-2.587c5.036,-0 5.963,3.316 5.963,7.623l-0,8.802Z"></path>
</svg>
